<svg xmlns="http://www.w3.org/2000/svg"  viewBox="0 0 512 512" width="192px" height="192px"><path fill="#EF4823" d="M123.7 383.9C123.7 383.9 123.7 383.9 123.7 383.9 123.7 383.9 123.7 383.9 123.7 383.9 123.7 383.9 123.7 383.9 123.7 383.9zM165 369.4c-6.9-1.2-11.1 3.6-10.5 10.3.3 4.1-3.1 6.1-6.2 5.7 5.5 8.7 21.6 9.3 25.5-1.4C175.8 378.1 170.9 370.4 165 369.4zM211.6 392.9c-2.1.2-4.1.5-6.2.8-.1 5-.3 10.1.1 15.1 2.4-.5 5.3-.6 7.8-1.3C212.8 402.6 211.9 397.8 211.6 392.9zM182.5 311.5c-8.9-12.5-18.3 11-16.3 18.7.9.6 1.7 1.6 2 3 .2.9-.2 1 1.3 1.3 1.6.3 3.1.4 4.8.2 2.7-.4 4.8-.9 6.4-3.2C184.1 326.6 186.2 316.7 182.5 311.5zM262 396.1c-2.9-4-9.4-7.2-13-2.5-2.4 3.1-3.6 7.1-4.1 11.2 4 2.1 8.6 2.7 12.7.3C260.5 403.4 264.6 399.8 262 396.1zM168.5 138.5c-.1-.6-.1-1.1-.1-1.6-3.8 1.4-7.6 2.9-11.2 4.7.1.2.3.4.4.6 2.6 4.9 5.3 9.8 7.9 14.8 2.6-1.1 5.3-2.1 8-3.1C171.3 148.9 169.6 143.9 168.5 138.5z"/><path fill="#F6851F" d="M373.5,348.5c-17.5-4.2-35-8.8-51.8-15.6c-2.8-1.2-5.6-2.4-8.4-3.7c-0.2,0.9-0.5,1.7-1.2,2.6c-3.5,4.3-6.5,9.1-11.7,11.6c-5.2,2.5-11.6,1.9-16.8-0.4c-10.8-4.8-18.8-16.3-18.2-28.4c0.1-2.2,1.2-3.7,2.7-4.7c-15.6-6.1-31.2-12.3-45.7-20.8c-1.5-0.9-2.4-2.2-2.7-3.6c-2.9-0.3-5.7-2.7-5.3-6.4c0.9-7.4,3.5-14.4,6.5-21.2c-1.5-0.7-2.6-2.2-2.6-4.3c-0.3-11.8-5.6-22.5-4.9-34.5c0.1-2.3,2.8-4.4,5-4.4c6.6-0.2,12.5-2.6,18.6-4.7c1-0.4,2-0.4,2.9-0.2c2.5-6.9,5.1-13.7,8.1-20.3c-2,0.6-4.2,0.1-5.7-2.2c-6-9.4-4.6-23,0.9-32.3c2.6-4.5,5.9-8.5,10.6-10.8c2.3-1.1,4.7-1.7,7.1-2.1c1.5-0.2,2.8-0.5,4.4-0.5c1.1-0.1,1.5-0.1,1.5,0.2c2-1.3,4.4-1,6.1,0.2c2.4-5.3,4.5-10.8,6.2-16.3c-25.3,6.2-52.7,1.8-78.5,4.4c-8,0.8-15.9,2.2-23.4,4.2c1,0.8,1.9,2,2.2,3.5c1.2,6.2,4,12,6.7,17.6c1.3,2.7-0.8,6.1-3.4,7c-6.1,2-12.2,4.2-18,7c-2.9,1.4-5.8-0.9-7-3.4c-1.9-3.8-3.8-7.7-5.9-11.4c-0.5-0.9-1.3-2.4-2.1-3.7c-1.3-0.7-2.2-1.9-2.3-3.8c-5.2,3.3-10.2,7.2-14.9,11.6c-17.6,16.8-30.8,37.8-40.3,60.2c-8.5,20.2-13.9,41.1-14.5,62.9c0.9,0.1,1.9,0.5,2.8,1.2c8.3,6.3,15.7,13.7,23,21c2.3,2.3,2.4,5.2,0.5,7.8c-2.5,3.5-4.7,7.3-7,10.9c-2,3-3.9,6.9-7,9c-5.9,4-12-5.1-6.2-9.1c-1.2,0.8,0-0.1,0.3-0.5c0.5-0.7,1-1.3,1.5-2c1.2-1.7,2.3-3.5,3.4-5.3c1.3-2,2.5-4,3.8-6c-4.8-4.8-9.7-9.5-15-13.9c0.9,23.6,5.3,47.1,13.4,69.3c7.8,21.5,18.5,42.3,37.6,55.8c17.9,12.6,39.8,18.4,61.4,20.5c22.6,2.2,46,0.8,68.2-3.8c52.6-10.8,95.4-42.9,128.4-84.2c0.2-0.2,0.4-0.5,0.6-0.6C382.8,350.7,378.2,349.6,373.5,348.5z M229.6,324.6c7.4,0,17.7,0.8,19.6,9.7c0.6,2.9-0.3,5.9-3.4,7c-2.6,0.9-6.4-0.4-7-3.4c0,0-0.3-0.7-0.4-1c-0.1-0.1-0.2-0.3,0.1-0.1c-1.1-0.6-0.8-0.5-2.1-0.8c-2.4-0.5-3.7-0.4-6.1-0.4c-3,0-5.7-1.9-5.9-5.1C224.3,327.7,226.6,324.6,229.6,324.6z M214.4,292.6c0.5,0.4,0.6,0.4,0.1,0.1c0.3,0.2,0.6,0.4,0.9,0.5c0.6,0.3,1.3,0.6,2,0.9c2.8,1,3.7,4.9,2.5,7.4c-1.4,2.9-4.6,3.5-7.4,2.5c-3.4-1.2-6.2-3.8-9.2-5.8c-2.5-1.7-2.3-5.7-0.5-7.8c2.2-2.5,5.3-2.2,7.8-0.5C211.9,290.8,213.2,291.8,214.4,292.6z M205.5,150.7c1.6-2.4,4.6-3.5,7.4-2.2c2.3,1.1,3.5,3.8,3,6.3c-0.2,0.9-0.6,1.8-0.9,2.7c-0.4,1-1.2,1.8-2.1,2.3c-0.1,0.3-0.3,0.6-0.4,0.9c0,0.1,0,0.2,0,0.3c0,0.1,0,0.1,0,0c0-0.1,0-0.1,0-0.3c0,0,0,0,0,0c0,0,0,0.1,0,0.1c-0.1,1-0.5,2-1.2,2.8c-0.9,1.1-2.3,1.7-3.7,1.9c-2.7,0.2-6-2.1-5.9-5.1C201.7,156.8,203.5,153.7,205.5,150.7z M203.5,238.1c2.6,1.3,3.9,4.7,2.5,7.4c-1.3,2.5-3.1,4.5-5.2,6.4c-1.2,1.1-2.5,2.2-3.8,3.2c-0.4,0.3-0.7,0.6-1.1,0.9c0.1,0-0.7,0.7-0.7,0.7c-2.1,2.1-5.4,2.6-7.8,0.5c-2.1-1.9-2.7-5.7-0.5-7.8c1.8-1.8,3.8-3.3,5.8-5c1-0.9,2.9-2.8,3.5-3.8C197.5,238,200.7,236.8,203.5,238.1z M191.9,183.6c7.6,7.9,7.8,20.7-0.2,28.4c-8.4,8-20.1,5.5-26.2-3.9c-1.4-2.2-1.1-4.5,0.2-6.1C158.8,189.5,180.3,171.6,191.9,183.6z M136.6,186.6c5.2,0,10.4,0.1,15.5,1.1c7,1.3,4.9,12.1-2.1,10.8c-2.9-0.6-5.8-0.8-8.8-0.9c-0.8,0.6-1.7,1-2.8,0.9c-3.8-0.1-6.8-2-6.9-6.1C131.5,189.7,133.5,186.6,136.6,186.6z M101.4,265.2c-2.6-2.2-2.3-5.2-0.7-7.3c0.3-4.9-0.7-10,1.6-14.5c2.7-5.2,7-8.8,12.8-9.9c10.1-2,21,3.6,25.5,12.9c4.8,10,0.7,22.9-9.4,27.7C120.4,279.3,109.5,272.1,101.4,265.2z M123.7,384.1c-0.1,0.3-0.1,0.6-0.1,0.9c0,0.1,0,0.2,0,0.4c0,0.4,0,0.9,0,1.3c0,3-1.9,5.7-5.1,5.9c-2.8,0.2-5.9-2.1-5.9-5.1c0-3.4,0-7.3,2.4-10.1c2-2.3,5.5-2.5,7.8-0.5c2,1.8,2.4,4.7,1.1,6.9C123.8,383.8,123.8,383.9,123.7,384.1z M128.5,324.6c-0.1,3-1.8,5.7-5.1,5.9c-2.7,0.2-6-2.1-5.9-5.1c0.4-8.9,7.3-14.6,14.4-19c6-3.7,12.2,5.4,6.2,9.1C135.2,317.3,128.7,321,128.5,324.6z M184.9,384.3c-1.8,10.6-11.7,17.6-22,18.5c-11.5,1-21.9-4.9-26-15.9c-1.8-4.7,2.9-7.9,6.7-7c-0.7-12.6,8.7-23.1,21.8-21.6C177.4,359.7,186.9,372.1,184.9,384.3z M185.9,342c-7.3,6-25.5,6.1-28-5.1c0,0,0-0.1,0-0.1c-0.9-0.6-1.6-1.5-2-2.9c-2.8-10.2,0.5-24,8.6-31.3c9.1-8.3,22.6-6.7,28.4,4.9C198,318,195.1,334.5,185.9,342z M222.1,415.6c-4.2,2.4-8.6,2.6-13.3,3.6c-0.9,0.2-1.7,0.2-2.5,0c-1.5,4.4-9.7,4-10.8-1.8c-1.8-8.9-1.1-17.9-1-27c0-0.7,0.1-1.3,0.3-1.9c0.3-2.3,1.8-4.6,4.8-5c5.7-1,11.3-1.9,17-2c3.8-0.1,6.1,2.9,5.8,6.5c-0.7,7.5,1.9,15,2.1,22.5C224.6,412.5,223.8,414.7,222.1,415.6z M226.6,372c-3.6-1.6-8.3-0.5-12.1-0.4c-7.1,0.1-7.9-10.9-0.8-11c6.1-0.1,12.2-1,17.9,1.6C238,365,233.1,374.8,226.6,372z M262.9,414.7c-7.3,3.8-15.3,3.6-22.3,0.3c-3.2,1.1-7.2-0.2-7.1-4.5c0-0.1,0-0.1,0-0.2c0,0-0.1-0.1-0.2-0.1c-3.2-2.9-1.8-7,0.9-8.8c1.2-7.2,4.1-14.5,10.1-18.4c9.6-6.2,22.9-0.8,27.8,9C276.6,400.8,270.9,410.5,262.9,414.7z M331.2,386.7c-5.3,7.4-17.5,7.8-25.7,7.9c-3,0-5.6-1.9-5.9-5.1c-0.8-9.1,1.8-18,2-27c0.1-4.8,5.2-6.7,8.5-5.2c5-1.5,10.4-0.8,15.6-0.7c2.3,0,5,1.1,5.6,3.7C333,367.6,336,379.9,331.2,386.7z"/><path fill="#EF4823" d="M184 191.4c-1.6-1.2-5-.1-6.8 1.9-1.2 1.2-2 2.4-2.1 3.4 0-.1-.2.1.4.5 3 1.9 3.2 5.3 2 7.8C183.9 208.8 190.8 196.5 184 191.4zM224.4 225c.4 5.7 2.1 11.4 3.5 17 1.3-3.3 2.6-6.6 3.9-9.8 1.3-3.4 2.6-6.8 3.8-10.2C232 223.3 228.3 224.4 224.4 225zM296.5 321.2c-6.6-2.9-13.2-5.6-19.9-8.2 0 .2 0 .4 0 .6-.4 8.1 4.3 16.5 12.1 19.4 7.9 2.9 10.8-3.1 15.2-8.4C301.3 323.4 298.9 322.3 296.5 321.2zM263.4 152.5c-3.7.6-6.4 1.8-8.6 4.8-4.5 6.1-7.7 16.7-3.2 23.6.1.2.3.5.4.7 5-9.7 10.8-19.4 16-29.4C266.6 152.3 265.1 152.3 263.4 152.5z"/><path fill="#FEBF10" d="M400.5,354.8c-1.6-0.4-3.1-0.7-4.7-1.1c0.9,1.8,1,4-0.6,6c-20.2,25.4-44.1,48.3-72.5,64.3c-27.7,15.6-58,24.5-89.6,27.3c-41.8,3.7-92.1-1.3-123-33.1c-16.4-16.8-26.2-39.7-32.8-62c-7.3-24.7-11.3-50.7-10.2-76.5c1-23.8,7.1-46.6,16.7-68.4c9.8-22,23-43.4,40.7-59.9c19.3-18,42.2-28.3,68.4-31.7c15-1.9,30.1-2.2,45.2-2.2c14.8,0,29.7,0.2,43.9-4.3c0.4-3.1,0.7-6.3,0.7-9.5c-0.1-0.4-0.1-0.8-0.1-1.3V99c-27.2-10.3-57.2-11.3-85.5-5.7c-25.6,5.1-51.4,15-73.2,29.5c-38.1,25.4-63.6,65.3-74.7,109.5c-11.4,45.7-11.5,97.9,5.5,142.2c8.6,22.3,21.9,42.7,40.3,58.1c20,16.8,44.5,28.2,69.7,34.6c50.6,12.7,106.4,8.8,154.9-10.3c22.3-8.8,43.6-21,61.3-37.4c8.9-8.2,17-17.2,24-27.1c3.8-5.3,7.3-10.8,10.5-16.5c3-5.4,5.3-11,8.2-16.4C415.9,357.6,408.1,356.6,400.5,354.8z"/><path fill="#EF4823" d="M321.6 367.3c-3.3-.2-6.6-.3-9.5.9-.6 5.1-1.5 10.1-1.7 15.2 1.8-.1 3.6-.3 5.4-.7 1.6-.3 3.2-.7 4.6-1.3.9-.4 1.8-1.6 1.7-.8C322.9 376.4 322.4 371.6 321.6 367.3zM123.5 384.1c0 .1-.1.1-.1.2.1-.1.1-.2.2-.3 0 0 0-.1 0-.1C123.6 384 123.6 384.1 123.5 384.1zM130.2 250.2c-3-4-9.9-8.5-15.1-5.2-4.7 3-3.5 9.3-3.7 14.4 4.2 3.4 10 7.3 14.7 5C131.2 262 133.7 254.8 130.2 250.2z"/><path fill="#F6851F" d="M419.4,304.3c-11-1.2-23.2-7.2-25.1-19c-2-12,8.5-24.9,20.8-24.8c-0.9-11.4-4.3-21.8-7-32.9c-0.1-0.2-0.1-0.5-0.2-0.7c-4.7,3.7-10.1,9.1-15.7,7.3c-8.3-2.5-11.2-12.7-15.8-19.1c-1.7-2.5-0.9-6,1.5-7.6c6.6-4.5,12.5-10.1,20.3-12.6c0.7-0.2,1.3-0.3,1.9-0.3c-0.1-0.4-0.2-0.8-0.3-1.2c-5.8-20.8-15.3-39.1-31.4-53.8c-10-9.2-19.9-19.4-20.3-32.5c-7,9.4-11.1,21.3-16.1,31.7c-6.8,14.1-14.7,27.6-22.6,41.1c-2.4,4-4.8,8.1-7.1,12.1c7,5.8,6.9,20.1,4.8,27.8c-1.8,6.7-5.4,13.7-11.8,17.1c-6.6,3.5-13.4,3.5-20.2,1.8c-3.9,6.9-7.8,13.9-11.6,21c14.5,7.1,29.8,11.8,45.1,16.9c16.3,5.4,32.5,11.8,48.1,19c16.2,7.4,32.6,13.7,49.2,20.2c5,2,9.7,4,14.6,5.4C420.3,315.5,419.9,309.9,419.4,304.3z M341.6,140.6c4.6-0.2,9.1-3.2,13.9-0.4c2.6,1.5,3.9,4.6,2.5,7.4c-1.3,2.6-4.8,4-7.4,2.5c-0.1,0-0.1-0.1-0.2-0.1c-0.1,0-0.1,0-0.2,0c0.4-0.1-1.4,0.4-1.7,0.4c-2,0.6-4,1.1-6,1.2c-3,0.1-5.7-2-5.9-5.1C336.3,143.6,338.6,140.7,341.6,140.6z M330.6,185c0.4-10.8,7.8-21,19.4-21.5c12.3-0.6,21.2,8.8,22.3,20.7c1.3,12.7-6.4,23.9-19.6,25.2c-11.7,1.1-23.2-5.6-25.9-17.5C326.1,188.6,328.1,186,330.6,185z M324.6,232c0.5-2,1.2-4,1.8-5.9c0.3-1,0.6-1.9,0.9-2.9c0.1-0.4,0.4-2.4,0.3-0.7c0.1-3,1.8-5.7,5.1-5.9c2.7-0.2,6.1,2.1,5.9,5.1c-0.2,4.3-2,8.3-3.1,12.5c-0.8,2.9-3.4,4.9-6.4,4.3C326.2,237.9,323.9,234.9,324.6,232z M352.6,275.3c-8.3,1.9-16.6,0.2-23.8-4c-3.3,0.7-7.6-1.8-7.1-6.3c0.5-4.7-0.2-10.3,2.2-14.6c2.6-4.6,7.5-9.1,12.5-11c10.2-3.8,24,0.7,28.1,11.4C368,260.4,363.2,272.8,352.6,275.3z M372.5,285.5c-0.1-0.4-0.1-0.6,0-0.5c0-0.1-0.1-0.3-0.1-0.4c-0.1-0.1-0.3-0.5-0.5-0.7c-0.1-0.1-1-0.9-1.1-1c0,0-1-0.7-0.9-0.6c-2-1.2-4.2-2.2-6.3-3.2c-6.4-3.1-1.5-13,4.9-9.9c6.6,3.2,14.7,7,15,15.5C383.8,291.7,372.8,292.6,372.5,285.5z"/><path fill="#EF4823" d="M361.5 186.2c-.6-5.8-3.8-12.5-10.6-11.8-5.9.6-9.4 5.4-9.3 11.2.1 2.7-1.5 4.5-3.4 5.3 2.2 5 6.9 8.1 12.9 7.5C357.8 197.8 362.2 193.2 361.5 186.2zM353.4 253.5c-1.7-2.3-4.8-4.1-7.7-4.5-4.1-.6-6.5 1.2-9.6 3.6-2.7 2.1-3.3 5.1-3.4 8.3 4.2 3 10.2 5 15.4 4.2C353.3 264.2 357 258.3 353.4 253.5zM415.9 278.5c-.1-2.3-.2-4.6-.3-6.9-5.9.3-12.3 6.3-10.3 12.7 1.6 5 7.4 7.9 12.7 8.9C417.1 288.3 416.2 283.5 415.9 278.5z"/><path fill="#FEBF10" d="M452.2,261.6c-2.1-22.7-11.7-44.2-17-66.2c-3.2-13.3-5.7-27.3-11.6-39.7c-4.8-10.1-10.9-19.7-18-28.4c-7.2-8.9-15.8-17.7-26-23.2c-5.6-3-12.7-6-19.1-5.3c0,0.1-0.1,0.2-0.1,0.3c-6.1,18.9,13.6,28.9,24.2,41c14.3,16.4,22.3,35.9,27.5,56.8c2.8,11.4,5.1,22.9,8.2,34.3c2.9,10.9,5.5,21,6,32.4c0.2,5.9,0.3,11.8,0.9,17.6c0.5,5.1,1.7,10.1,2.4,15.3c1.1,8.9,1.8,17.8,2,26.8c3.5,0.5,7,1,10.4,1.9C447.5,304.5,454.2,283.2,452.2,261.6z"/><path fill="#EF4823" d="M402.8 204.8c-.3.2-.6.3-.9.4-5.1 1.7-9.3 5-13.5 8.2.8 1.3 1.5 2.7 2.3 4 .9 1.4 1.7 2.9 2.8 4.2.3.5.7.9 1.1 1.3 3.8-2 6.7-5.4 10.4-7.5.1-.1.2-.1.3-.1C404.4 211.8 403.6 208.3 402.8 204.8zM296.8 204.7c-.1-.3-.4-1.4-.7-2.3-5.1 8.7-10.3 17.4-15.3 26.2 7.2.7 13.4-2.5 15.5-10.9C297.3 213.4 297.6 209.2 296.8 204.7z"/><path d="M432.9,357.3c0.4-0.8,0.6-1.7,0.6-2.6v-3c0-5.3-6.2-6.2-9.3-3.2c-6.6-1.6-13.2-2.6-19.8-4c-9-1.9-18-4.2-27-6.3c-17.2-4.1-34.3-8.6-50.7-15.1c-8.1-3.2-15.8-7.2-23.6-10.8c-8.3-3.8-16.9-7.1-25.5-10.5c-17.1-6.6-34.2-13.2-50.1-22.5c-0.6-0.3-1.1-0.5-1.7-0.7c1.3-7.3,4.4-13.9,7.4-20.6c3.6-8,6.7-16.2,9.9-24.3c6.2-16,11.2-32.4,19.1-47.7c14.3-27.8,33.6-55.4,31.3-88.2c-0.2-2.3-1.4-3.8-2.9-4.4c-0.1-1.7-1-3.2-3.1-4.1c-53-20.1-113.2-8.4-161.3,19.3c-40.8,23.5-68.9,62.8-83.5,107c-14.9,45-16.3,96.5-4.8,142.4c5.7,22.9,15.9,44.9,30.7,63.4c15.8,19.8,36.8,34.6,59.8,45C176.5,488.1,233,490,284.2,479c47.6-10.3,92.7-33.9,123.6-72.2c4.9-6.1,9.4-12.7,13.6-19.4c4.8-7.7,8.1-16.1,12.6-23.9C435.4,361,434.6,358.7,432.9,357.3z M276.5,313.6c0-0.2,0-0.4,0-0.6c6.7,2.6,13.4,5.3,19.9,8.2c2.5,1.1,4.9,2.2,7.3,3.4c-4.3,5.4-7.3,11.3-15.2,8.4C280.8,330.1,276.1,321.7,276.5,313.6z M231.8,232.2c-1.3,3.3-2.6,6.6-3.9,9.8c-1.3-5.7-3.1-11.3-3.5-17c3.8-0.6,7.5-1.7,11.2-3C234.4,225.4,233.1,228.8,231.8,232.2z M252,181.7c-0.1-0.2-0.2-0.5-0.4-0.7c-4.4-6.9-1.3-17.6,3.2-23.6c2.3-3,4.9-4.2,8.6-4.8c1.6-0.3,3.1-0.2,4.5-0.3C262.8,162.2,257,172,252,181.7z M273.1,141.7c-1.7-1.2-4.1-1.6-6.1-0.2c0.1-0.3-0.4-0.3-1.5-0.2c-1.5,0-2.9,0.2-4.4,0.5c-2.5,0.4-4.9,1-7.1,2.1c-4.7,2.3-8,6.4-10.6,10.8c-5.5,9.3-6.9,23-0.9,32.3c1.5,2.3,3.7,2.8,5.7,2.2c-3,6.6-5.6,13.4-8.1,20.3c-0.9-0.2-1.8-0.1-2.9,0.2c-6.1,2.1-12.1,4.5-18.6,4.7c-2.2,0.1-4.8,2.1-5,4.4c-0.7,11.9,4.6,22.7,4.9,34.5c0.1,2.2,1.2,3.6,2.6,4.3c-3,6.8-5.7,13.8-6.5,21.2c-0.4,3.7,2.4,6.1,5.3,6.4c0.3,1.4,1.1,2.7,2.7,3.6c14.5,8.5,30.1,14.8,45.7,20.8c-1.5,0.9-2.6,2.5-2.7,4.7c-0.7,12,7.4,23.5,18.2,28.4c5.2,2.3,11.6,2.9,16.8,0.4c5.2-2.5,8.2-7.3,11.7-11.6c0.7-0.8,1.1-1.7,1.2-2.6c2.8,1.3,5.6,2.5,8.4,3.7c16.7,6.8,34.2,11.5,51.8,15.6c4.6,1.1,9.3,2.2,13.9,3.3c-0.2,0.2-0.4,0.4-0.6,0.6c-33,41.4-75.8,73.4-128.4,84.2c-22.2,4.6-45.6,6-68.2,3.8c-21.5-2.1-43.5-7.9-61.4-20.5c-19.1-13.4-29.8-34.3-37.6-55.8c-8-22.2-12.4-45.7-13.4-69.3c5.2,4.4,10.1,9.1,15,13.9c-1.3,2-2.5,4-3.8,6c-1.1,1.8-2.2,3.6-3.4,5.3c-0.5,0.7-1,1.3-1.5,2c-0.3,0.4-1.5,1.3-0.3,0.5c-5.9,4,0.3,13.1,6.2,9.1c3.1-2.1,5.1-6,7-9c2.3-3.6,4.5-7.4,7-10.9c1.9-2.5,1.8-5.5-0.5-7.8c-7.3-7.3-14.7-14.7-23-21c-0.9-0.7-1.8-1-2.8-1.2c0.7-21.8,6-42.7,14.5-62.9c9.4-22.4,22.6-43.4,40.3-60.2c4.7-4.5,9.7-8.3,14.9-11.6c0.1,1.8,1,3.1,2.3,3.8c0.7,1.3,1.5,2.7,2.1,3.7c2.1,3.8,4,7.6,5.9,11.4c1.2,2.4,4.1,4.8,7,3.4c5.8-2.8,11.9-5,18-7c2.6-0.9,4.7-4.3,3.4-7c-2.8-5.6-5.5-11.4-6.7-17.6c-0.3-1.6-1.1-2.7-2.2-3.5c7.6-2,15.4-3.4,23.4-4.2c25.8-2.6,53.1,1.8,78.5-4.4C277.7,131,275.5,136.4,273.1,141.7z M168.5,138.5c1,5.4,2.8,10.4,4.9,15.4c-2.7,1-5.4,2-8,3.1c-2.6-5-5.2-9.8-7.9-14.8c-0.1-0.2-0.2-0.4-0.4-0.6c3.6-1.8,7.4-3.4,11.2-4.7C168.4,137.4,168.4,137.9,168.5,138.5z M415.4,375.9c-3.2,5.7-6.7,11.2-10.5,16.5c-7,9.8-15.2,18.9-24,27.1c-17.7,16.4-39,28.6-61.3,37.4c-48.5,19.1-104.3,23-154.9,10.3c-25.3-6.3-49.7-17.8-69.7-34.6c-18.4-15.4-31.7-35.9-40.3-58.1c-17.1-44.3-17-96.6-5.5-142.2c11.1-44.1,36.5-84,74.7-109.5c21.8-14.5,47.5-24.5,73.2-29.5c28.4-5.6,58.3-4.6,85.5,5.7v3.5c0,0.5,0.1,0.9,0.1,1.3c0,3.2-0.3,6.4-0.7,9.5c-14.2,4.5-29.2,4.3-43.9,4.3c-15.1,0-30.2,0.2-45.2,2.2c-26.2,3.4-49.1,13.6-68.4,31.7c-17.7,16.5-30.9,37.9-40.7,59.9C74,233.1,68,255.9,67,279.7c-1.1,25.7,2.9,51.8,10.2,76.5c6.6,22.3,16.4,45.2,32.8,62c30.9,31.8,81.2,36.9,123,33.1c31.7-2.8,61.9-11.7,89.6-27.3c28.5-16,52.3-38.9,72.5-64.3c1.6-2,1.5-4.2,0.6-6c1.6,0.4,3.1,0.7,4.7,1.1c7.7,1.8,15.5,2.8,23.1,4.7C420.6,364.9,418.3,370.6,415.4,375.9z"/><path d="M460.1 242.7c-3.3-14.9-8.9-29.2-12.8-44-3.6-14.1-6-29-11.5-42.5-8.4-20.7-22.7-40.4-40.1-54.5-8.4-6.8-18.3-12.2-29.1-13.8-12-1.8-21.4 4-28 13.6-7.6 11-12.3 23.7-18.1 35.7-6.6 13.5-14.3 26.4-22 39.4-10.2 17.3-20.5 34.6-30.5 52.1-.6.7-1.1 1.5-1.4 2.4-5 8.7-9.9 17.5-14.6 26.4-1.2 2.2-.7 4.3.6 5.7 0 1.8.9 3.6 2.9 4.7 15.1 7.9 31.3 13 47.4 18.2 16.6 5.4 32.9 12 48.7 19.2 16.2 7.3 32.6 13.7 49.2 20.2 7.3 2.8 14.1 6.2 21.8 7.5 6.6 1.1 13.7 1.1 19.8 3.9 2.7 1.2 5.2.2 6.6-1.6 1-.7 1.9-1.8 2.3-3.3 3.9-14.8 8.3-29.5 10.6-44.6C464.4 272.3 463.4 257.7 460.1 242.7zM296.1 202.5c.3.9.6 1.9.7 2.3.8 4.4.5 8.7-.6 13-2.1 8.4-8.2 11.6-15.5 10.9C285.8 219.9 290.9 211.2 296.1 202.5zM405.8 315.7c-16.5-6.6-33-12.8-49.2-20.2-15.6-7.2-31.7-13.6-48.1-19-15.3-5-30.6-9.7-45.1-16.9 3.8-7 7.6-14 11.6-21 6.8 1.7 13.6 1.7 20.2-1.8 6.4-3.4 10-10.4 11.8-17.1 2.1-7.7 2.2-22.1-4.8-27.8 2.4-4 4.8-8.1 7.1-12.1 7.9-13.5 15.8-27 22.6-41.1 5-10.5 9.1-22.3 16.1-31.7.4 13.1 10.3 23.4 20.3 32.5 16.1 14.7 25.6 33 31.4 53.8.1.4.2.8.3 1.2-.6 0-1.3.1-1.9.3-7.8 2.5-13.7 8.1-20.3 12.6-2.4 1.7-3.2 5.2-1.5 7.6 4.5 6.4 7.5 16.6 15.8 19.1 5.6 1.7 11-3.6 15.7-7.3.1.2.1.5.2.7 2.7 11.1 6 21.5 7 32.9-12.3-.2-22.8 12.8-20.8 24.8 1.9 11.7 14.2 17.8 25.1 19 .6 5.6.9 11.2 1.1 16.8C415.5 319.7 410.8 317.7 405.8 315.7zM401.8 205.2c.3-.1.7-.3.9-.4.8 3.5 1.6 7 2.4 10.5-.1 0-.2.1-.3.1-3.7 2.1-6.7 5.5-10.4 7.5-.4-.4-.8-.8-1.1-1.3-1-1.3-1.9-2.8-2.8-4.2-.8-1.3-1.6-2.7-2.3-4C392.6 210.2 396.8 206.9 401.8 205.2zM415.5 271.6c.1 2.3.2 4.6.3 6.9.3 5 1.3 9.8 2.1 14.7-5.3-1-11.2-3.9-12.7-8.9C403.2 277.9 409.6 271.9 415.5 271.6zM441.9 325.2c-3.4-.9-6.9-1.5-10.4-1.9-.2-9-.8-17.9-2-26.8-.7-5.1-1.9-10.1-2.4-15.3-.6-5.9-.7-11.8-.9-17.6-.5-11.4-3.1-21.5-6-32.4-3-11.3-5.3-22.9-8.2-34.3-5.2-20.9-13.2-40.4-27.5-56.8-10.6-12.2-30.3-22.1-24.2-41 0-.1.1-.2.1-.3 6.4-.7 13.5 2.3 19.1 5.3 10.2 5.5 18.7 14.3 26 23.2 7.1 8.7 13.2 18.3 18 28.4 5.9 12.4 8.4 26.4 11.6 39.7 5.3 22.1 14.9 43.5 17 66.2C454.2 283.2 447.5 304.5 441.9 325.2zM192.8 307.5c-5.8-11.6-19.3-13.2-28.4-4.9-8 7.3-11.4 21-8.6 31.3.4 1.4 1.1 2.3 2 2.9 0 0 0 .1 0 .1 2.5 11.2 20.7 11.1 28 5.1C195.1 334.5 198 318 192.8 307.5zM180.7 331.5c-1.6 2.3-3.7 2.9-6.4 3.2-1.6.2-3.2.1-4.8-.2-1.6-.3-1.1-.4-1.3-1.3-.3-1.5-1.1-2.5-2-3-2.1-7.7 7.3-31.2 16.3-18.7C186.2 316.7 184.1 326.6 180.7 331.5zM191.9 183.6c-11.5-12-33.1 5.9-26.2 18.4-1.2 1.6-1.6 3.9-.2 6.1 6 9.4 17.8 11.9 26.2 3.9C199.7 204.3 199.4 191.5 191.9 183.6zM177.5 204.9c1.2-2.5 1-5.9-2-7.8-.6-.4-.3-.7-.4-.5.1-1 .9-2.2 2.1-3.4 1.9-1.9 5.2-3.1 6.8-1.9C190.8 196.5 183.9 208.8 177.5 204.9zM272.2 392c-4.9-9.8-18.2-15.2-27.8-9-6 3.9-8.8 11.2-10.1 18.4-2.8 1.8-4.1 5.9-.9 8.8 0 0 .1.1.2.1 0 .1 0 .1 0 .2-.1 4.3 3.9 5.6 7.1 4.5 7 3.3 15 3.5 22.3-.3C270.9 410.5 276.6 400.8 272.2 392zM257.6 405.1c-4.1 2.4-8.8 1.7-12.7-.3.5-4 1.8-8.1 4.1-11.2 3.6-4.7 10.1-1.6 13 2.5C264.6 399.8 260.5 403.4 257.6 405.1zM140.7 246.4c-4.5-9.2-15.4-14.8-25.5-12.9-5.8 1.1-10.2 4.7-12.8 9.9-2.3 4.5-1.3 9.6-1.6 14.5-1.6 2.1-1.9 5.1.7 7.3 8.1 6.9 19 14.1 29.8 8.9C141.4 269.3 145.5 256.3 140.7 246.4zM126.2 264.4c-4.8 2.3-10.5-1.6-14.7-5 .1-5.1-1-11.4 3.7-14.4 5.2-3.3 12.1 1.2 15.1 5.2C133.7 254.8 131.2 262 126.2 264.4zM165.3 358.3c-13.1-1.5-22.5 9-21.8 21.6-3.8-.9-8.4 2.3-6.7 7 4.1 11 14.4 16.8 26 15.9 10.3-.9 20.3-7.9 22-18.5C186.9 372.1 177.4 359.7 165.3 358.3zM173.7 383.9c-3.9 10.8-20 10.1-25.5 1.4 3.1.4 6.6-1.6 6.2-5.7-.5-6.7 3.6-11.5 10.5-10.3C170.9 370.4 175.8 378.1 173.7 383.9z"/><path d="M372.3 184.2c-1.2-11.9-10.1-21.3-22.3-20.7-11.6.6-19 10.7-19.4 21.5-2.5 1-4.5 3.6-3.7 6.9 2.7 11.8 14.1 18.6 25.9 17.5C365.9 208.1 373.6 196.9 372.3 184.2zM351 198.4c-5.9.6-10.7-2.5-12.9-7.5 1.9-.8 3.5-2.6 3.4-5.3-.1-5.8 3.4-10.6 9.3-11.2 6.9-.7 10.1 5.9 10.6 11.8C362.2 193.2 357.8 197.8 351 198.4zM364.4 250.8c-4.1-10.7-17.9-15.2-28.1-11.4-5 1.9-9.9 6.4-12.5 11-2.4 4.3-1.7 9.9-2.2 14.6-.5 4.5 3.8 7 7.1 6.3 7.2 4.2 15.5 5.9 23.8 4C363.2 272.8 368 260.4 364.4 250.8zM348 265.1c-5.2.8-11.2-1.2-15.4-4.2.2-3.2.8-6.3 3.4-8.3 3.1-2.4 5.5-4.1 9.6-3.6 2.9.4 6 2.2 7.7 4.5C357 258.3 353.3 264.2 348 265.1zM203.5 238.1c-2.7-1.4-6-.2-7.4 2.5-.6 1.1-2.4 3-3.5 3.8-1.9 1.6-3.9 3.2-5.8 5-2.1 2.1-1.6 5.9.5 7.8 2.4 2.1 5.6 1.6 7.8-.5 0 0 .8-.7.7-.7.4-.3.7-.6 1.1-.9 1.3-1.1 2.5-2.1 3.8-3.2 2.1-1.9 3.9-3.9 5.2-6.4C207.4 242.9 206.1 239.4 203.5 238.1zM152.1 187.7c-5.1-1-10.3-1.1-15.5-1.1-3.1 0-5.1 3.1-5.1 5.9.1 4.1 3.2 6 6.9 6.1 1 0 2-.3 2.8-.9 2.9.1 5.8.3 8.8.9C156.9 199.8 159 189 152.1 187.7zM212.4 161C212.4 161.1 212.4 161.1 212.4 161L212.4 161zM212.9 148.5c-2.8-1.3-5.8-.2-7.4 2.2-2 2.9-3.8 6.1-4 9.8-.1 3 3.2 5.3 5.9 5.1 1.4-.1 2.8-.8 3.7-1.9.8-.9 1.1-1.8 1.2-2.8 0 0 0-.1 0-.1 0 0 0 0 0 0 0 .1 0 .2 0 .3 0-.1 0-.2 0-.3.1-.3.2-.6.4-.9.9-.5 1.7-1.3 2.1-2.3.3-.9.7-1.8.9-2.7C216.4 152.4 215.2 149.6 212.9 148.5zM131.9 306.5c-7.2 4.3-14 10.1-14.4 19-.1 3 3.2 5.3 5.9 5.1 3.3-.2 4.9-2.9 5.1-5.9.2-3.6 6.7-7.3 9.6-9C144.2 311.9 138 302.8 131.9 306.5zM249.2 334.2c-1.9-8.9-12.2-9.7-19.6-9.7-3 0-5.3 3.1-5.1 5.9.2 3.2 2.9 5.1 5.9 5.1 2.4 0 3.7 0 6.1.4 1.2.2 1 .2 2.1.8-.3-.2-.3 0-.1.1.1.3.3 1 .4 1 .6 2.9 4.4 4.3 7 3.4C248.9 340.2 249.9 337.2 249.2 334.2zM331.2 360.2c-.6-2.5-3.3-3.6-5.6-3.7-5.2-.1-10.6-.8-15.6.7-3.2-1.5-8.4.4-8.5 5.2-.2 9-2.8 17.9-2 27 .3 3.1 2.9 5.1 5.9 5.1 8.2-.1 20.4-.5 25.7-7.9C336 379.9 333 367.6 331.2 360.2zM322.1 380.6c.1-.8-.7.4-1.7.8-1.5.6-3.1 1-4.6 1.3-1.8.3-3.6.5-5.4.7.2-5.1 1.1-10.1 1.7-15.2 2.9-1.1 6.3-1.1 9.5-.9C322.4 371.6 322.9 376.4 322.1 380.6zM222.4 388.1c.3-3.7-2-6.6-5.8-6.5-5.7.1-11.3 1-17 2-2.9.5-4.5 2.7-4.8 5-.2.6-.3 1.2-.3 1.9-.1 9.1-.8 18.1 1 27 1.2 5.9 9.3 6.2 10.8 1.8.8.2 1.6.2 2.5 0 4.6-1 9-1.3 13.3-3.6 1.7-1 2.5-3.1 2.4-5C224.3 403.1 221.8 395.6 222.4 388.1zM205.5 408.8c-.3-5-.2-10-.1-15.1 2-.3 4.1-.6 6.2-.8.3 4.9 1.2 9.7 1.7 14.6C210.8 408.2 207.9 408.3 205.5 408.8zM231.5 362.1c-5.7-2.5-11.8-1.6-17.9-1.6-7.1.1-6.2 11.1.8 11 3.8 0 8.6-1.1 12.1.4C233.1 374.8 238 365 231.5 362.1zM332.6 216.6c-3.3.2-4.9 2.9-5.1 5.9.1-1.8-.2.3-.3.7-.2 1-.6 2-.9 2.9-.6 2-1.3 3.9-1.8 5.9-.8 2.9 1.5 5.9 4.3 6.4 3.1.6 5.7-1.4 6.4-4.3 1.1-4.2 2.9-8.1 3.1-12.5C338.7 218.6 335.3 216.4 332.6 216.6zM355.5 140.1c-4.8-2.7-9.3.3-13.9.4-3 .1-5.3 3-5.1 5.9.2 3.1 2.9 5.2 5.9 5.1 2-.1 4-.6 6-1.2.3-.1 2.1-.5 1.7-.4.1 0 .2 0 .2 0 0 0 .1.1.2.1 2.6 1.5 6.1.1 7.4-2.5C359.3 144.7 358.1 141.6 355.5 140.1z"/><path d="M368.5 269.1c-6.4-3.1-11.2 6.7-4.9 9.9 2.1 1 4.3 2 6.3 3.2-.1 0 .9.6.9.6.1.1 1 1 1.1 1 .1.2.4.6.5.7 0 .1.1.3.1.4 0-.1 0 .1 0 .5.3 7.1 11.3 6.2 11-.8C383.2 276.2 375.1 272.4 368.5 269.1zM122.7 376.9c-2.2-2-5.8-1.8-7.8.5-2.4 2.8-2.4 6.6-2.4 10.1 0 3 3.1 5.3 5.9 5.1 3.2-.2 5.1-2.9 5.1-5.9 0-.4 0-.9 0-1.3 0-.1 0-.2 0-.4 0-.3.1-.6.1-.9 0 .1-.1.2-.2.3 0-.1 0-.1.1-.2 0-.1.1-.1.1-.2 0 0 0 0 0 0 0 0 0 0 .1-.1C125 381.6 124.7 378.7 122.7 376.9z"/><path d="M123.7 383.9C123.7 383.9 123.7 383.9 123.7 383.9c-.1.1-.1.2-.1.2C123.8 383.9 123.8 383.8 123.7 383.9zM217.5 294.1c-.7-.2-1.3-.5-2-.9-.3-.2-.6-.3-.9-.5.4.3.4.3-.1-.1-1.3-.9-2.5-1.8-3.8-2.7-2.5-1.7-5.6-2-7.8.5-1.8 2-2 6.1.5 7.8 3 2 5.7 4.6 9.2 5.8 2.8 1 5.9.4 7.4-2.5C221.2 299.1 220.3 295.1 217.5 294.1z"/></svg>